<mxfile host="app.diagrams.net" agent="Mozilla/5.0 (Windows NT 10.0; Win64; x64) AppleWebKit/537.36 (KHTML, like Gecko) Chrome/131.0.0.0 Safari/537.36 OPR/116.0.0.0 (Edition std-2)" version="26.0.16">
  <diagram name="PÃ¡gina-1" id="FfCO2eKarPiMsyPL1Ph5">
    <mxGraphModel grid="1" page="1" gridSize="10" guides="1" tooltips="1" connect="1" arrows="1" fold="1" pageScale="1" pageWidth="827" pageHeight="1169" math="0" shadow="0">
      <root>
        <mxCell id="0" />
        <mxCell id="1" parent="0" />
        <mxCell id="x9ZDqzCsy-9QFXaZk-rJ-15" value="" style="rounded=0;whiteSpace=wrap;html=1;flipH=0;" vertex="1" parent="1">
          <mxGeometry x="110" width="730" height="350" as="geometry" />
        </mxCell>
        <mxCell id="qW8PRl5HBEv7Nv8qZGeY-22" style="edgeStyle=orthogonalEdgeStyle;rounded=0;orthogonalLoop=1;jettySize=auto;html=1;exitX=0.5;exitY=1;exitDx=0;exitDy=0;dashed=1;endArrow=none;startFill=0;dashPattern=8 8;" edge="1" parent="1">
          <mxGeometry relative="1" as="geometry">
            <mxPoint x="762.75" y="330" as="targetPoint" />
            <mxPoint x="762.75" y="140" as="sourcePoint" />
          </mxGeometry>
        </mxCell>
        <mxCell id="qW8PRl5HBEv7Nv8qZGeY-23" style="edgeStyle=orthogonalEdgeStyle;rounded=0;orthogonalLoop=1;jettySize=auto;html=1;exitX=0.5;exitY=1;exitDx=0;exitDy=0;dashed=1;endArrow=none;startFill=0;dashPattern=8 8;" edge="1" parent="1">
          <mxGeometry relative="1" as="geometry">
            <mxPoint x="617.25" y="330" as="targetPoint" />
            <mxPoint x="617.25" y="140" as="sourcePoint" />
          </mxGeometry>
        </mxCell>
        <mxCell id="qW8PRl5HBEv7Nv8qZGeY-21" style="edgeStyle=orthogonalEdgeStyle;rounded=0;orthogonalLoop=1;jettySize=auto;html=1;exitX=0.5;exitY=1;exitDx=0;exitDy=0;dashed=1;endArrow=none;startFill=0;dashPattern=8 8;" edge="1" parent="1">
          <mxGeometry relative="1" as="geometry">
            <mxPoint x="449.5" y="330" as="targetPoint" />
            <mxPoint x="449.5" y="140" as="sourcePoint" />
          </mxGeometry>
        </mxCell>
        <mxCell id="qW8PRl5HBEv7Nv8qZGeY-18" style="edgeStyle=orthogonalEdgeStyle;rounded=0;orthogonalLoop=1;jettySize=auto;html=1;exitX=0.5;exitY=1;exitDx=0;exitDy=0;dashed=1;endArrow=none;startFill=0;dashPattern=8 8;" edge="1" parent="1" source="x9ZDqzCsy-9QFXaZk-rJ-23">
          <mxGeometry relative="1" as="geometry">
            <mxPoint x="310" y="330" as="targetPoint" />
          </mxGeometry>
        </mxCell>
        <mxCell id="x9ZDqzCsy-9QFXaZk-rJ-16" value="Usuario" style="shape=umlActor;verticalLabelPosition=bottom;verticalAlign=top;html=1;outlineConnect=0;" vertex="1" parent="1">
          <mxGeometry x="170" y="50" width="30" height="60" as="geometry" />
        </mxCell>
        <mxCell id="x9ZDqzCsy-9QFXaZk-rJ-17" style="edgeStyle=orthogonalEdgeStyle;rounded=0;orthogonalLoop=1;jettySize=auto;html=1;exitX=0.5;exitY=0;exitDx=0;exitDy=0;endArrow=none;startFill=0;dashed=1;dashPattern=8 8;" edge="1" parent="1" source="x9ZDqzCsy-9QFXaZk-rJ-20">
          <mxGeometry relative="1" as="geometry">
            <mxPoint x="185" y="129" as="targetPoint" />
          </mxGeometry>
        </mxCell>
        <mxCell id="x9ZDqzCsy-9QFXaZk-rJ-18" style="edgeStyle=orthogonalEdgeStyle;rounded=0;orthogonalLoop=1;jettySize=auto;html=1;exitX=1;exitY=0.25;exitDx=0;exitDy=0;entryX=0;entryY=0;entryDx=0;entryDy=0;entryPerimeter=0;" edge="1" parent="1" source="x9ZDqzCsy-9QFXaZk-rJ-20" target="x9ZDqzCsy-9QFXaZk-rJ-50">
          <mxGeometry relative="1" as="geometry">
            <Array as="points">
              <mxPoint x="190" y="210" />
            </Array>
          </mxGeometry>
        </mxCell>
        <mxCell id="x9ZDqzCsy-9QFXaZk-rJ-19" value="Fornece o titulo" style="edgeLabel;html=1;align=center;verticalAlign=middle;resizable=0;points=[];" connectable="0" vertex="1" parent="x9ZDqzCsy-9QFXaZk-rJ-18">
          <mxGeometry x="-0.0375" relative="1" as="geometry">
            <mxPoint as="offset" />
          </mxGeometry>
        </mxCell>
        <mxCell id="qW8PRl5HBEv7Nv8qZGeY-16" style="edgeStyle=orthogonalEdgeStyle;rounded=0;orthogonalLoop=1;jettySize=auto;html=1;exitX=1;exitY=1;exitDx=0;exitDy=0;entryX=0;entryY=0.75;entryDx=0;entryDy=0;" edge="1" parent="1" source="x9ZDqzCsy-9QFXaZk-rJ-20" target="qW8PRl5HBEv7Nv8qZGeY-15">
          <mxGeometry relative="1" as="geometry">
            <Array as="points">
              <mxPoint x="190" y="325" />
            </Array>
          </mxGeometry>
        </mxCell>
        <mxCell id="qW8PRl5HBEv7Nv8qZGeY-17" value="Clica no video desejado" style="edgeLabel;html=1;align=center;verticalAlign=middle;resizable=0;points=[];" connectable="0" vertex="1" parent="qW8PRl5HBEv7Nv8qZGeY-16">
          <mxGeometry x="-0.0815" y="1" relative="1" as="geometry">
            <mxPoint as="offset" />
          </mxGeometry>
        </mxCell>
        <mxCell id="x9ZDqzCsy-9QFXaZk-rJ-20" value="" style="rounded=0;whiteSpace=wrap;html=1;" vertex="1" parent="1">
          <mxGeometry x="180" y="160" width="10" height="170" as="geometry" />
        </mxCell>
        <mxCell id="x9ZDqzCsy-9QFXaZk-rJ-21" value="Sd Acessar recomendados" style="shape=card;whiteSpace=wrap;html=1;rotation=0;size=20;direction=south;flipH=0;flipV=1;" vertex="1" parent="1">
          <mxGeometry x="110" width="240" height="30" as="geometry" />
        </mxCell>
        <mxCell id="x9ZDqzCsy-9QFXaZk-rJ-22" value="" style="shape=umlBoundary;whiteSpace=wrap;html=1;" vertex="1" parent="1">
          <mxGeometry x="270" y="50" width="80" height="60" as="geometry" />
        </mxCell>
        <mxCell id="x9ZDqzCsy-9QFXaZk-rJ-23" value="Pag inicial" style="text;html=1;align=center;verticalAlign=middle;whiteSpace=wrap;rounded=0;" vertex="1" parent="1">
          <mxGeometry x="260" y="110" width="100" height="30" as="geometry" />
        </mxCell>
        <mxCell id="x9ZDqzCsy-9QFXaZk-rJ-26" value="" style="rounded=0;whiteSpace=wrap;html=1;" vertex="1" parent="1">
          <mxGeometry x="305" y="159" width="10" height="11" as="geometry" />
        </mxCell>
        <mxCell id="x9ZDqzCsy-9QFXaZk-rJ-27" value="" style="ellipse;shape=umlControl;whiteSpace=wrap;html=1;" vertex="1" parent="1">
          <mxGeometry x="587.75" y="50" width="60" height="60" as="geometry" />
        </mxCell>
        <mxCell id="x9ZDqzCsy-9QFXaZk-rJ-28" value="Controlador_sistema" style="text;html=1;align=center;verticalAlign=middle;whiteSpace=wrap;rounded=0;" vertex="1" parent="1">
          <mxGeometry x="560" y="110" width="115.5" height="30" as="geometry" />
        </mxCell>
        <mxCell id="x9ZDqzCsy-9QFXaZk-rJ-30" style="edgeStyle=orthogonalEdgeStyle;rounded=0;orthogonalLoop=1;jettySize=auto;html=1;exitX=1;exitY=0.25;exitDx=0;exitDy=0;entryX=0;entryY=0.25;entryDx=0;entryDy=0;" edge="1" parent="1" source="x9ZDqzCsy-9QFXaZk-rJ-35" target="x9ZDqzCsy-9QFXaZk-rJ-41">
          <mxGeometry relative="1" as="geometry">
            <Array as="points">
              <mxPoint x="623" y="250" />
            </Array>
          </mxGeometry>
        </mxCell>
        <mxCell id="x9ZDqzCsy-9QFXaZk-rJ-31" value="GetAll.stream(filtro)" style="edgeLabel;html=1;align=center;verticalAlign=middle;resizable=0;points=[];" connectable="0" vertex="1" parent="x9ZDqzCsy-9QFXaZk-rJ-30">
          <mxGeometry x="0.0008" y="2" relative="1" as="geometry">
            <mxPoint x="12" y="-1" as="offset" />
          </mxGeometry>
        </mxCell>
        <mxCell id="x9ZDqzCsy-9QFXaZk-rJ-32" style="edgeStyle=orthogonalEdgeStyle;rounded=0;orthogonalLoop=1;jettySize=auto;html=1;exitX=0;exitY=0;exitDx=0;exitDy=0;entryX=1;entryY=0.5;entryDx=0;entryDy=0;" edge="1" parent="1" source="x9ZDqzCsy-9QFXaZk-rJ-53" target="x9ZDqzCsy-9QFXaZk-rJ-47">
          <mxGeometry relative="1" as="geometry">
            <Array as="points">
              <mxPoint x="613" y="280" />
            </Array>
          </mxGeometry>
        </mxCell>
        <mxCell id="x9ZDqzCsy-9QFXaZk-rJ-33" value="Listar()" style="edgeLabel;html=1;align=center;verticalAlign=middle;resizable=0;points=[];" connectable="0" vertex="1" parent="x9ZDqzCsy-9QFXaZk-rJ-32">
          <mxGeometry x="0.4023" y="2" relative="1" as="geometry">
            <mxPoint x="25" y="-2" as="offset" />
          </mxGeometry>
        </mxCell>
        <mxCell id="x9ZDqzCsy-9QFXaZk-rJ-35" value="" style="rounded=0;whiteSpace=wrap;html=1;" vertex="1" parent="1">
          <mxGeometry x="612.75" y="230" width="10" height="20" as="geometry" />
        </mxCell>
        <mxCell id="x9ZDqzCsy-9QFXaZk-rJ-36" value="" style="ellipse;shape=umlEntity;whiteSpace=wrap;html=1;" vertex="1" parent="1">
          <mxGeometry x="733.25" y="50" width="60" height="60" as="geometry" />
        </mxCell>
        <mxCell id="x9ZDqzCsy-9QFXaZk-rJ-37" value="Banco_de_dados" style="text;html=1;align=center;verticalAlign=middle;whiteSpace=wrap;rounded=0;" vertex="1" parent="1">
          <mxGeometry x="713.25" y="110" width="100" height="30" as="geometry" />
        </mxCell>
        <mxCell id="x9ZDqzCsy-9QFXaZk-rJ-39" style="edgeStyle=orthogonalEdgeStyle;rounded=0;orthogonalLoop=1;jettySize=auto;html=1;exitX=0;exitY=0.75;exitDx=0;exitDy=0;entryX=1;entryY=0.25;entryDx=0;entryDy=0;" edge="1" parent="1" source="x9ZDqzCsy-9QFXaZk-rJ-41" target="x9ZDqzCsy-9QFXaZk-rJ-53">
          <mxGeometry relative="1" as="geometry">
            <mxPoint x="623" y="270" as="targetPoint" />
            <Array as="points">
              <mxPoint x="758" y="275" />
            </Array>
          </mxGeometry>
        </mxCell>
        <mxCell id="x9ZDqzCsy-9QFXaZk-rJ-40" value="Lista de tutoriais :vector" style="edgeLabel;html=1;align=center;verticalAlign=middle;resizable=0;points=[];" connectable="0" vertex="1" parent="x9ZDqzCsy-9QFXaZk-rJ-39">
          <mxGeometry x="0.2104" y="1" relative="1" as="geometry">
            <mxPoint x="14" as="offset" />
          </mxGeometry>
        </mxCell>
        <mxCell id="x9ZDqzCsy-9QFXaZk-rJ-41" value="" style="rounded=0;whiteSpace=wrap;html=1;" vertex="1" parent="1">
          <mxGeometry x="758.25" y="240" width="10" height="40" as="geometry" />
        </mxCell>
        <mxCell id="x9ZDqzCsy-9QFXaZk-rJ-42" value="" style="shape=umlBoundary;whiteSpace=wrap;html=1;" vertex="1" parent="1">
          <mxGeometry x="410" y="50" width="80" height="60" as="geometry" />
        </mxCell>
        <mxCell id="x9ZDqzCsy-9QFXaZk-rJ-43" value="Pag pesquisa" style="text;html=1;align=center;verticalAlign=middle;whiteSpace=wrap;rounded=0;" vertex="1" parent="1">
          <mxGeometry x="400" y="110" width="100" height="30" as="geometry" />
        </mxCell>
        <mxCell id="x9ZDqzCsy-9QFXaZk-rJ-45" style="edgeStyle=orthogonalEdgeStyle;rounded=0;orthogonalLoop=1;jettySize=auto;html=1;exitX=0;exitY=0.5;exitDx=0;exitDy=0;" edge="1" parent="1" source="x9ZDqzCsy-9QFXaZk-rJ-47">
          <mxGeometry relative="1" as="geometry">
            <mxPoint x="193" y="290" as="targetPoint" />
            <Array as="points">
              <mxPoint x="445" y="290" />
              <mxPoint x="193" y="290" />
            </Array>
          </mxGeometry>
        </mxCell>
        <mxCell id="x9ZDqzCsy-9QFXaZk-rJ-46" value="Mostra a lista de pesquisa" style="edgeLabel;html=1;align=center;verticalAlign=middle;resizable=0;points=[];" connectable="0" vertex="1" parent="x9ZDqzCsy-9QFXaZk-rJ-45">
          <mxGeometry x="0.1045" relative="1" as="geometry">
            <mxPoint as="offset" />
          </mxGeometry>
        </mxCell>
        <mxCell id="x9ZDqzCsy-9QFXaZk-rJ-47" value="" style="rounded=0;whiteSpace=wrap;html=1;" vertex="1" parent="1">
          <mxGeometry x="445" y="270" width="10" height="20" as="geometry" />
        </mxCell>
        <mxCell id="x9ZDqzCsy-9QFXaZk-rJ-48" style="edgeStyle=orthogonalEdgeStyle;rounded=0;orthogonalLoop=1;jettySize=auto;html=1;exitX=1;exitY=0.5;exitDx=0;exitDy=0;entryX=0;entryY=0;entryDx=0;entryDy=0;" edge="1" parent="1" source="x9ZDqzCsy-9QFXaZk-rJ-50" target="x9ZDqzCsy-9QFXaZk-rJ-35">
          <mxGeometry relative="1" as="geometry">
            <mxPoint x="445" y="230" as="targetPoint" />
            <Array as="points">
              <mxPoint x="315" y="230" />
            </Array>
          </mxGeometry>
        </mxCell>
        <mxCell id="x9ZDqzCsy-9QFXaZk-rJ-49" value="Listar(filtro)" style="edgeLabel;html=1;align=center;verticalAlign=middle;resizable=0;points=[];" connectable="0" vertex="1" parent="x9ZDqzCsy-9QFXaZk-rJ-48">
          <mxGeometry x="-0.04" relative="1" as="geometry">
            <mxPoint y="1" as="offset" />
          </mxGeometry>
        </mxCell>
        <mxCell id="x9ZDqzCsy-9QFXaZk-rJ-50" value="" style="rounded=0;whiteSpace=wrap;html=1;" vertex="1" parent="1">
          <mxGeometry x="305" y="210" width="10" height="30" as="geometry" />
        </mxCell>
        <mxCell id="x9ZDqzCsy-9QFXaZk-rJ-51" style="edgeStyle=orthogonalEdgeStyle;rounded=0;orthogonalLoop=1;jettySize=auto;html=1;exitX=0;exitY=0.5;exitDx=0;exitDy=0;" edge="1" parent="1" source="x9ZDqzCsy-9QFXaZk-rJ-26">
          <mxGeometry relative="1" as="geometry">
            <Array as="points">
              <mxPoint x="305" y="163" />
            </Array>
            <mxPoint x="191" y="164" as="targetPoint" />
          </mxGeometry>
        </mxCell>
        <mxCell id="x9ZDqzCsy-9QFXaZk-rJ-52" value="Requisita o titulo" style="edgeLabel;html=1;align=center;verticalAlign=middle;resizable=0;points=[];" connectable="0" vertex="1" parent="x9ZDqzCsy-9QFXaZk-rJ-51">
          <mxGeometry x="0.1481" y="-1" relative="1" as="geometry">
            <mxPoint x="9" y="3" as="offset" />
          </mxGeometry>
        </mxCell>
        <mxCell id="x9ZDqzCsy-9QFXaZk-rJ-53" value="" style="rounded=0;whiteSpace=wrap;html=1;" vertex="1" parent="1">
          <mxGeometry x="612.75" y="270" width="10" height="20" as="geometry" />
        </mxCell>
        <mxCell id="qW8PRl5HBEv7Nv8qZGeY-15" value="" style="rounded=0;whiteSpace=wrap;html=1;" vertex="1" parent="1">
          <mxGeometry x="445" y="310" width="10" height="20" as="geometry" />
        </mxCell>
      </root>
    </mxGraphModel>
  </diagram>
</mxfile>
